<svg width="126" height="36" viewBox="0 0 126 36" fill="none" xmlns="http://www.w3.org/2000/svg">
<path d="M8.136 14.936H24.312V20.984H8.136V14.936ZM8.712 28.76H27V35H0.984V1.4H26.376V7.64H8.712V28.76ZM44.2271 35.576C41.5391 35.576 38.9631 35.224 36.4991 34.52C34.0351 33.784 32.0511 32.84 30.5471 31.688L33.1871 25.832C34.6271 26.856 36.3231 27.704 38.2751 28.376C40.2591 29.016 42.2591 29.336 44.2751 29.336C45.8111 29.336 47.0431 29.192 47.9711 28.904C48.9311 28.584 49.6351 28.152 50.0831 27.608C50.5311 27.064 50.7551 26.44 50.7551 25.736C50.7551 24.84 50.4031 24.136 49.6991 23.624C48.9951 23.08 48.0671 22.648 46.9151 22.328C45.7631 21.976 44.4831 21.656 43.0751 21.368C41.6991 21.048 40.3071 20.664 38.8991 20.216C37.5231 19.768 36.2591 19.192 35.1071 18.488C33.9551 17.784 33.0111 16.856 32.2751 15.704C31.5711 14.552 31.2191 13.08 31.2191 11.288C31.2191 9.368 31.7311 7.624 32.7551 6.056C33.8111 4.456 35.3791 3.192 37.4591 2.264C39.5711 1.304 42.2111 0.823999 45.3791 0.823999C47.4911 0.823999 49.5711 1.08 51.6191 1.592C53.6671 2.072 55.4751 2.808 57.0431 3.8L54.6431 9.704C53.0751 8.808 51.5071 8.152 49.9391 7.736C48.3711 7.288 46.8351 7.064 45.3311 7.064C43.8271 7.064 42.5951 7.24 41.6351 7.592C40.6751 7.944 39.9871 8.408 39.5711 8.984C39.1551 9.528 38.9471 10.168 38.9471 10.904C38.9471 11.768 39.2991 12.472 40.0031 13.016C40.7071 13.528 41.6351 13.944 42.7871 14.264C43.9391 14.584 45.2031 14.904 46.5791 15.224C47.9871 15.544 49.3791 15.912 50.7551 16.328C52.1631 16.744 53.4431 17.304 54.5951 18.008C55.7471 18.712 56.6751 19.64 57.3791 20.792C58.1151 21.944 58.4831 23.4 58.4831 25.16C58.4831 27.048 57.9551 28.776 56.8991 30.344C55.8431 31.912 54.2591 33.176 52.1471 34.136C50.0671 35.096 47.4271 35.576 44.2271 35.576ZM70.9485 14.936H87.1245V20.984H70.9485V14.936ZM71.5245 28.76H89.8125V35H63.7965V1.4H89.1885V7.64H71.5245V28.76ZM95.9996 35V1.4H110.544C113.552 1.4 116.144 1.896 118.32 2.888C120.496 3.848 122.176 5.24 123.36 7.064C124.544 8.888 125.136 11.064 125.136 13.592C125.136 16.088 124.544 18.248 123.36 20.072C122.176 21.896 120.496 23.304 118.32 24.296C116.144 25.256 113.552 25.736 110.544 25.736H100.32L103.776 22.232V35H95.9996ZM103.776 23.096L100.32 19.4H110.112C112.512 19.4 114.304 18.888 115.488 17.864C116.672 16.84 117.264 15.416 117.264 13.592C117.264 11.736 116.672 10.296 115.488 9.272C114.304 8.248 112.512 7.736 110.112 7.736H100.32L103.776 4.04V23.096Z" fill="white"/>
</svg>
