<svg width="143" height="143" viewBox="0 0 143 143" fill="none" xmlns="http://www.w3.org/2000/svg">
<g filter="url(#filter0_d_186_1275)">
<path fill-rule="evenodd" clip-rule="evenodd" d="M53.0558 10H89.9448C102.678 10 113 20.3224 113 33.0555V69.9445C113 82.6776 102.678 93 89.9448 93H53.0558C40.3224 93 30 82.6776 30 69.9445V33.0555C30 20.3224 40.3224 10 53.0558 10Z" fill="white"/>
</g>
<rect x="39" y="16" width="65" height="71" rx="11" fill="#3469C0"/>
<path d="M59.54 40.9C60.912 40.9 62.186 40.662 63.362 40.186C64.566 39.71 65.742 39.038 66.89 38.17L68.57 40.69C68.038 41.166 67.408 41.6 66.68 41.992C65.98 42.384 65.21 42.72 64.37 43C63.558 43.252 62.704 43.448 61.808 43.588C60.912 43.756 60.016 43.84 59.12 43.84C57.132 43.84 55.312 43.574 53.66 43.042C52.036 42.538 50.65 41.796 49.502 40.816C48.354 39.808 47.458 38.576 46.814 37.12C46.198 35.664 45.89 33.984 45.89 32.08C45.89 30.204 46.184 28.538 46.772 27.082C47.388 25.598 48.228 24.366 49.292 23.386C50.384 22.378 51.672 21.622 53.156 21.118C54.64 20.586 56.278 20.32 58.07 20.32C59.75 20.32 61.332 20.572 62.816 21.076C64.3 21.58 65.588 22.322 66.68 23.302C67.772 24.254 68.64 25.416 69.284 26.788C69.928 28.16 70.25 29.714 70.25 31.45V34.39H52.316C52.652 36.714 53.45 38.38 54.71 39.388C55.998 40.396 57.608 40.9 59.54 40.9ZM58.07 23.05C57.258 23.05 56.502 23.204 55.802 23.512C55.102 23.82 54.486 24.31 53.954 24.982C53.45 25.654 53.03 26.522 52.694 27.586C52.386 28.65 52.218 29.938 52.19 31.45H63.95C63.95 29.994 63.782 28.734 63.446 27.67C63.11 26.606 62.662 25.738 62.102 25.066C61.57 24.366 60.94 23.862 60.212 23.554C59.512 23.218 58.798 23.05 58.07 23.05ZM80.1167 25.78C80.1167 26.424 80.3967 27.012 80.9567 27.544C81.5447 28.076 82.5247 28.538 83.8967 28.93L90.4067 30.82C92.4227 31.408 93.9767 32.206 95.0687 33.214C96.1607 34.222 96.7067 35.524 96.7067 37.12C96.7067 38.128 96.4967 39.052 96.0767 39.892C95.6567 40.704 94.9707 41.404 94.0187 41.992C93.0667 42.58 91.8347 43.028 90.3227 43.336C88.8107 43.672 86.9487 43.84 84.7367 43.84C83.5887 43.84 82.4547 43.756 81.3347 43.588C80.2427 43.42 79.1927 43.196 78.1847 42.916C77.2047 42.608 76.3087 42.272 75.4967 41.908C74.6847 41.516 73.9847 41.11 73.3967 40.69L75.0767 38.17C76.2527 38.898 77.6247 39.542 79.1927 40.102C80.7887 40.634 82.6367 40.9 84.7367 40.9C86.8367 40.9 88.3067 40.62 89.1467 40.06C89.9867 39.5 90.4067 38.8 90.4067 37.96C90.4067 37.316 90.1127 36.742 89.5247 36.238C88.9367 35.706 87.9007 35.23 86.4167 34.81L79.9067 32.92C78.1147 32.388 76.6447 31.632 75.4967 30.652C74.3767 29.644 73.8167 28.3 73.8167 26.62C73.8167 25.724 74.0127 24.898 74.4047 24.142C74.8247 23.358 75.4687 22.686 76.3367 22.126C77.2047 21.566 78.3107 21.132 79.6547 20.824C80.9987 20.488 82.6227 20.32 84.5267 20.32C86.8507 20.32 88.9507 20.642 90.8267 21.286C92.7307 21.902 94.2707 22.63 95.4467 23.47L93.7667 25.99C92.6187 25.262 91.3167 24.632 89.8607 24.1C88.4047 23.54 86.6267 23.26 84.5267 23.26C83.0427 23.26 81.9367 23.498 81.2087 23.974C80.4807 24.45 80.1167 25.052 80.1167 25.78Z" fill="white"/>
<path d="M59.54 72.9C60.912 72.9 62.186 72.662 63.362 72.186C64.566 71.71 65.742 71.038 66.89 70.17L68.57 72.69C68.038 73.166 67.408 73.6 66.68 73.992C65.98 74.384 65.21 74.72 64.37 75C63.558 75.252 62.704 75.448 61.808 75.588C60.912 75.756 60.016 75.84 59.12 75.84C57.132 75.84 55.312 75.574 53.66 75.042C52.036 74.538 50.65 73.796 49.502 72.816C48.354 71.808 47.458 70.576 46.814 69.12C46.198 67.664 45.89 65.984 45.89 64.08C45.89 62.204 46.184 60.538 46.772 59.082C47.388 57.598 48.228 56.366 49.292 55.386C50.384 54.378 51.672 53.622 53.156 53.118C54.64 52.586 56.278 52.32 58.07 52.32C59.75 52.32 61.332 52.572 62.816 53.076C64.3 53.58 65.588 54.322 66.68 55.302C67.772 56.254 68.64 57.416 69.284 58.788C69.928 60.16 70.25 61.714 70.25 63.45V66.39H52.316C52.652 68.714 53.45 70.38 54.71 71.388C55.998 72.396 57.608 72.9 59.54 72.9ZM58.07 55.05C57.258 55.05 56.502 55.204 55.802 55.512C55.102 55.82 54.486 56.31 53.954 56.982C53.45 57.654 53.03 58.522 52.694 59.586C52.386 60.65 52.218 61.938 52.19 63.45H63.95C63.95 61.994 63.782 60.734 63.446 59.67C63.11 58.606 62.662 57.738 62.102 57.066C61.57 56.366 60.94 55.862 60.212 55.554C59.512 55.218 58.798 55.05 58.07 55.05ZM80.9567 56.1V72.06H86.2067C87.1587 72.06 88.0267 71.92 88.8107 71.64C89.6227 71.332 90.3087 70.856 90.8687 70.212C91.4567 69.568 91.9047 68.742 92.2127 67.734C92.5487 66.726 92.7167 65.508 92.7167 64.08C92.7167 62.652 92.5487 61.434 92.2127 60.426C91.9047 59.418 91.4567 58.592 90.8687 57.948C90.3087 57.304 89.6227 56.842 88.8107 56.562C88.0267 56.254 87.1587 56.1 86.2067 56.1H80.9567ZM86.2067 53.16C88.1387 53.16 89.8887 53.412 91.4567 53.916C93.0527 54.42 94.4107 55.148 95.5307 56.1C96.6507 57.052 97.5047 58.2 98.0927 59.544C98.7087 60.888 99.0167 62.4 99.0167 64.08C99.0167 65.76 98.7087 67.272 98.0927 68.616C97.5047 69.96 96.6507 71.108 95.5307 72.06C94.4107 73.012 93.0527 73.74 91.4567 74.244C89.8887 74.748 88.1387 75 86.2067 75H80.9567V82.56H75.0767V53.16H86.2067Z" fill="white"/>
<defs>
<filter id="filter0_d_186_1275" x="0" y="0" width="143" height="143" filterUnits="userSpaceOnUse" color-interpolation-filters="sRGB">
<feFlood flood-opacity="0" result="BackgroundImageFix"/>
<feColorMatrix in="SourceAlpha" type="matrix" values="0 0 0 0 0 0 0 0 0 0 0 0 0 0 0 0 0 0 127 0" result="hardAlpha"/>
<feOffset dy="20"/>
<feGaussianBlur stdDeviation="15"/>
<feColorMatrix type="matrix" values="0 0 0 0 0 0 0 0 0 0 0 0 0 0 0 0 0 0 0.14902 0"/>
<feBlend mode="normal" in2="BackgroundImageFix" result="effect1_dropShadow_186_1275"/>
<feBlend mode="normal" in="SourceGraphic" in2="effect1_dropShadow_186_1275" result="shape"/>
</filter>
</defs>
</svg>
